# xmcd
#
# Track frame offsets:
#	150
#	36277
#	59375
#	89616
#	129567
#	152861
#
# Disc length: 2387 seconds
#
# Revision: 0
# Processed by: cddbd v1.5.2PL0 Copyright (c) Steve Scherf et al.
# Submitted via: audiograbber 1.83.01
#
DISCID=4f095106
DTITLE=Grateful Dead - 93-03-20 The Omni, Atlanta GA
DYEAR=1900
DGENRE=
TTITLE0=Space
TTITLE1=The Wheel
TTITLE2=All Along The Watchtower
TTITLE3=Standing On The Moon
TTITLE4=One More Saturday Night
TTITLE5=Liberty
EXTD=
EXTT0=
EXTT1=
EXTT2=
EXTT3=
EXTT4=
EXTT5=
PLAYORDER=
